<svg xmlns="http://www.w3.org/2000/svg" version="1.1" xmlns:xlink="http://www.w3.org/1999/xlink" xmlns:svgjs="http://svgjs.dev/svgjs" width="100%" height="100%" viewBox="0 0 1000 600"><rect width="1000" height="600" x="0" y="0" fill="#f7f7f7"/><g><rect width="333.3333333333333" height="333.3333333333333" y="204.68698460734635" fill="#006838" transform="matrix(0.6850637391414518,0,0,0.6850637391414517,0,45.599075960262994)" x="182.4647674560547"/><path d="M350.00822299909225 446.3536288422313L350.00822299909225 446.3536288422313Q332.82328199890503 446.3536288422313 323.49431402737474 439.65500898297455Q314.13027474768086 432.95638912371794 310.4828586986615 419.94493379500466Q306.8354426496422 406.93347846629143 306.8354426496422 387.9949720579217L306.8354426496422 387.9949720579217L306.8354426496422 354.67722930245657Q306.8354426496422 335.24772457979583 310.6231439313161 322.3414831755735Q314.41084521299 309.4703130795149 323.88009841717485 302.91197845291276Q333.3493516213597 296.3536438263107 350.00822299909225 296.3536438263107L350.00822299909225 296.3536438263107Q368.4206597850073 296.3536438263107 377.1534155177555 303.92904638965854Q385.85109994234006 311.50444895300643 388.6217332872683 325.778471375611Q391.42743794036005 340.0174224900519 391.42743794036005 359.97299683516735L391.42743794036005 359.97299683516735L391.42743794036005 371.86217030264385L333.8403499356508 371.86217030264385L333.8403499356508 401.1467126192896Q333.8403499356508 409.98468227652876 335.4887014193422 415.52594896638504Q337.13705290303363 421.10228696440504 340.784468952053 423.7326350766786Q344.4318850010723 426.3980544971158 350.2537221562378 426.3980544971158L350.2537221562378 426.3980544971158Q356.32105846854887 426.3980544971158 359.4774762032771 423.48713591953305Q362.63389393800543 420.5762173419503 363.7561757992421 415.14016457658494Q364.9135289686425 409.7391831193832 364.9135289686425 402.40927971318087L364.9135289686425 402.40927971318087L364.9135289686425 393.5713100559417L391.14686747505084 393.5713100559417L391.14686747505084 399.11257674579804Q391.14686747505084 421.10228696440504 381.8178995035206 433.72795790331816Q372.4889315319904 446.3536288422313 350.00822299909225 446.3536288422313ZM333.8403499356508 349.3814617697458L333.8403499356508 357.2023634902392L364.9135289686425 357.2023634902392L364.9135289686425 344.085694237035Q364.9135289686425 334.9671541144866 363.8964610318967 328.79460387768466Q362.87939309515093 322.6220536408827 359.72297536042265 319.46563590615443Q356.5665576256944 316.30921817142615 349.76272384194675 316.30921817142615L349.76272384194675 316.30921817142615Q343.16931790718104 316.30921817142615 339.7674010153072 319.3253506734998Q336.36548412343336 322.3414831755735 335.1029170295421 329.56617265728494Q333.8403499356508 336.75579083083267 333.8403499356508 349.3814617697458L333.8403499356508 349.3814617697458Z " fill="#f7f7f7" transform="matrix(0.6850637391414518,0,0,0.6850637391414517,0,45.599075960262994)"/><path d="M646.9590465334968 418.9605012524624L599.1314402534204 418.9605012524624L599.1314402534204 296.3536441863498L646.643699678903 296.3536441863498L646.643699678903 309.07263398830423L616.2232397724104 309.07263398830423L616.2232397724104 349.6262394890812L640.9043869252937 349.6262394890812L640.9043869252937 361.7355587054874L616.2232397724104 361.7355587054874L616.2232397724104 406.70402017057904L646.9590465334968 406.70402017057904L646.9590465334968 418.9605012524624ZM675.5715178069843 418.9605012524624L659.3626894808574 418.9605012524624L659.3626894808574 331.46226066447196L675.5715178069843 331.46226066447196L675.5715178069843 340.10276448034506Q679.9443275240199 336.00325537062423 685.2421546811977 333.14411055563943Q690.5399818383753 330.26394261701506 696.9099883011723 330.26394261701506L696.9099883011723 330.26394261701506Q702.2078154583501 330.26394261701506 705.0038909024161 332.9759255665227Q707.799966346482 335.7089316396699 708.9352150230202 339.7874176257512Q710.0704636995582 343.886926735472 710.0704636995582 348.1125745870304L710.0704636995582 348.1125745870304L710.0704636995582 418.9605012524624L693.8826584970708 418.9605012524624L693.8826584970708 352.8217542822995Q693.8826584970708 348.1125745870304 692.5161554604972 345.54775350299997Q691.1496524239235 342.9829324189695 686.9240045723652 342.9829324189695L686.9240045723652 342.9829324189695Q684.1909984992179 342.9829324189695 681.2477611896747 344.559666691939Q678.283500756492 346.15742408854817 675.5715178069843 348.42792144162433L675.5715178069843 348.42792144162433L675.5715178069843 418.9605012524624ZM756.9940756631322 418.9605012524624L737.169270070995 418.9605012524624L719.9092855628883 331.46226066447196L736.2652757544924 331.46226066447196L747.008091934325 401.8476786098328L757.8980699796347 331.46226066447196L773.6443895856906 331.46226066447196L756.9940756631322 418.9605012524624ZM833.7495000712901 418.9605012524624L819.8111690982392 418.9605012524624L822.0816664513154 296.3536441863498L838.879142239351 296.3536441863498L860.5329595881329 395.7930190016298L882.3339388023919 296.3536441863498L898.9842527249505 296.3536441863498L901.2547500780266 418.9605012524624L887.4846040940924 418.9605012524624L886.118101057519 329.9485957624211L865.3682780252395 418.9605012524624L855.6976411510263 418.9605012524624L835.0949799842241 329.9485957624211L833.7495000712901 418.9605012524624ZM931.8223718499964 420.17984242355885L931.8223718499964 420.17984242355885Q926.6717065582959 420.17984242355885 922.7403824376918 417.2155819903761Q918.8090583170876 414.27234468083293 916.5385609640115 409.6472574801222Q914.2680636109353 405.04319340305113 914.2680636109353 399.8925281113506L914.2680636109353 399.8925281113506Q914.2680636109353 391.7145330155485 917.0010696840826 386.1223821274165Q919.7130526335902 380.50920811564487 924.4853016997781 376.66197648959917Q929.2575507659659 372.79372173991385 935.5434647342046 369.9135538012895Q941.8083555788036 367.03338586266506 948.7880326271488 364.32140291315744L948.7880326271488 364.32140291315744L948.7880326271488 358.1195814394772Q948.7880326271488 352.8217542822995 948.1783620416006 349.3319157581269Q947.5686914560524 345.8420772339542 945.6766103284889 344.11818109550757Q943.7845292009254 342.3732618334212 940.0003669457985 342.3732618334212L940.0003669457985 342.3732618334212Q936.6787134107426 342.3732618334212 934.6184472940624 343.886926735472Q932.5792043010217 345.4005916375228 931.6752099845191 348.19666708158877Q930.7712156680167 350.9927425256548 930.7712156680167 354.7769047807817L930.7712156680167 354.7769047807817L930.7712156680167 359.1707376214569L914.7305723310064 358.56106703590865Q915.0248960619608 344.0340886009492 921.3738794011181 337.1385040471623Q927.7438858639151 330.26394261701506 941.0515231277782 330.26394261701506L941.0515231277782 330.26394261701506Q954.0858597843264 330.26394261701506 959.5308488069813 337.3697584071979Q964.9758378296362 344.4965973210202 964.9758378296362 357.95139645036045L964.9758378296362 357.95139645036045L964.9758378296362 397.91635448922875Q964.9758378296362 402.0158635989496 965.2070921896717 405.8000258540765Q965.4383465497074 409.58418810920347 965.81676277522 412.82174914970096Q966.1951790007327 416.080333313838 966.489502731687 418.9605012524624L966.489502731687 418.9605012524624L951.6471774421336 418.9605012524624Q951.2056918457022 416.5428420339091 950.5119287655955 412.82174914970096Q949.8391888091285 409.1216793891324 949.5448650781741 406.09434958503084L949.5448650781741 406.09434958503084Q948.0312001761233 411.2450148767314 943.7004367063671 415.70191708832533Q939.3906963602502 420.17984242355885 931.8223718499964 420.17984242355885ZM938.1923783127934 406.241511450508L938.1923783127934 406.241511450508Q940.6100375313467 406.241511450508 942.7333730189457 404.8750084139344Q944.8356853829051 403.52952850100036 946.5175352740725 401.7846092389141Q948.1783620416006 400.03968997682773 948.7880326271488 398.9885337948481L948.7880326271488 398.9885337948481L948.7880326271488 374.16022477648744Q945.0038703720219 376.2835602640865 941.6611937133264 378.3858726280459Q938.3395401782705 380.50920811564487 935.8377884651588 382.8637979632794Q933.3360367520471 385.19736468727433 931.9064643445548 388.1616251204571Q930.4558688134227 391.10486243000025 930.4558688134227 394.8890246851272L930.4558688134227 394.8890246851272Q930.4558688134227 400.1868518423049 932.4320424355446 403.2141816464065Q934.4082160576666 406.241511450508 938.1923783127934 406.241511450508ZM996.7628007727025 418.9605012524624L980.574995570215 418.9605012524624L980.574995570215 331.46226066447196L996.7628007727025 331.46226066447196L996.7628007727025 340.10276448034506Q1001.1566336133776 336.00325537062423 1006.4544607705553 333.14411055563943Q1011.752287927733 330.26394261701506 1018.1012712668904 330.26394261701506L1018.1012712668904 330.26394261701506Q1023.3990984240681 330.26394261701506 1026.1951738681341 332.9759255665227Q1029.0122724358398 335.7089316396699 1030.1475211123777 339.7874176257512Q1031.2827697889159 343.886926735472 1031.2827697889159 348.1125745870304L1031.2827697889159 348.1125745870304L1031.2827697889159 418.9605012524624L1015.0739414627889 418.9605012524624L1015.0739414627889 352.8217542822995Q1015.0739414627889 348.1125745870304 1013.7074384262153 345.54775350299997Q1012.3619585132813 342.9829324189695 1008.1152875380833 342.9829324189695L1008.1152875380833 342.9829324189695Q1005.382281464936 342.9829324189695 1002.4390441553928 344.559666691939Q999.4958068458496 346.15742408854817 996.7628007727025 348.42792144162433L996.7628007727025 348.42792144162433L996.7628007727025 418.9605012524624ZM1060.1895647933577 420.17984242355885L1060.1895647933577 420.17984242355885Q1055.0388995016572 420.17984242355885 1051.107575381053 417.2155819903761Q1047.1762512604491 414.27234468083293 1044.9057539073729 409.6472574801222Q1042.6352565542966 405.04319340305113 1042.6352565542966 399.8925281113506L1042.6352565542966 399.8925281113506Q1042.6352565542966 391.7145330155485 1045.3472395038043 386.1223821274165Q1048.0802455769515 380.50920811564487 1052.8524946431394 376.66197648959917Q1057.6037205856876 372.79372173991385 1063.8896345539263 369.9135538012895Q1070.175548522165 367.03338586266506 1077.1342024468704 364.32140291315744L1077.1342024468704 364.32140291315744L1077.1342024468704 358.1195814394772Q1077.1342024468704 352.8217542822995 1076.5245318613224 349.3319157581269Q1075.9358843994137 345.8420772339542 1074.0438032718503 344.11818109550757Q1072.1517221442869 342.3732618334212 1068.3675598891598 342.3732618334212L1068.3675598891598 342.3732618334212Q1065.0248832304644 342.3732618334212 1062.9856402374237 343.886926735472Q1060.9463972443832 345.4005916375228 1060.0424029278806 348.19666708158877Q1059.1173854877384 350.9927425256548 1059.1173854877384 354.7769047807817L1059.1173854877384 354.7769047807817L1059.1173854877384 359.1707376214569L1043.0767421507283 358.56106703590865Q1043.392089005322 344.0340886009492 1049.7410723444796 337.1385040471623Q1056.0900556836368 330.26394261701506 1069.4187160711397 330.26394261701506L1069.4187160711397 330.26394261701506Q1082.4320296040482 330.26394261701506 1087.8770186267031 337.3697584071979Q1093.3430307729975 344.4965973210202 1093.3430307729975 357.95139645036045L1093.3430307729975 357.95139645036045L1093.3430307729975 397.91635448922875Q1093.3430307729975 402.0158635989496 1093.5532620093936 405.8000258540765Q1093.7845163694292 409.58418810920347 1094.1629325949418 412.82174914970096Q1094.5413488204545 416.080333313838 1094.8566956750483 418.9605012524624L1094.8566956750483 418.9605012524624L1080.0143703854949 418.9605012524624Q1079.551861665424 416.5428420339091 1078.879121708957 412.82174914970096Q1078.2063817524897 409.1216793891324 1077.891034897896 406.09434958503084L1077.891034897896 406.09434958503084Q1076.3773699958451 411.2450148767314 1072.0676296497284 415.70191708832533Q1067.7578893036116 420.17984242355885 1060.1895647933577 420.17984242355885ZM1066.5385481325152 406.241511450508L1066.5385481325152 406.241511450508Q1068.9562073510685 406.241511450508 1071.0795428386673 404.8750084139344Q1073.2028783262665 403.52952850100036 1074.8637050937946 401.7846092389141Q1076.5245318613224 400.03968997682773 1077.1342024468704 398.9885337948481L1077.1342024468704 398.9885337948481L1077.1342024468704 374.16022477648744Q1073.3500401917436 376.2835602640865 1070.0283866566879 378.3858726280459Q1066.6857099979923 380.50920811564487 1064.20498140852 382.8637979632794Q1061.7032296954085 385.19736468727433 1060.2526341642765 388.1616251204571Q1058.8230617567842 391.10486243000025 1058.8230617567842 394.8890246851272L1058.8230617567842 394.8890246851272Q1058.8230617567842 400.1868518423049 1060.799235378906 403.2141816464065Q1062.7543858773884 406.241511450508 1066.5385481325152 406.241511450508ZM1132.0886476407695 446.35363135485346L1132.0886476407695 446.35363135485346Q1124.0578144104445 446.35363135485346 1117.6247385767288 444.6087120927672Q1111.191662743013 442.88481595432046 1107.4915929824442 439.24781556467065Q1103.7705000982362 435.6108151750209 1103.7705000982362 429.70331743229497L1103.7705000982362 429.70331743229497Q1103.7705000982362 425.16232272614263 1105.8938355858352 421.75657669652844Q1108.0171710734342 418.3508306669142 1111.33882460849 415.9331714483609Q1114.6815012671855 413.51551222980754 1118.3185016568355 412.14900919323395L1118.3185016568355 412.14900919323395L1125.886826167089 413.20016537521366Q1123.9106525449674 415.0291771318583 1122.1026639119623 416.9212582594218Q1120.2736521553174 418.81333938698526 1119.0753341078607 420.85258238002586Q1117.8559929367643 422.89182537306647 1117.8559929367643 425.3094845916198L1117.8559929367643 425.3094845916198Q1117.8559929367643 429.2618318358635 1121.2617389663785 431.21698233434574Q1124.6674849959927 433.1931559564676 1133.455150677343 433.1931559564676L1133.455150677343 433.1931559564676Q1142.0746313695768 433.1931559564676 1146.2372098502162 431.15391296342693Q1150.3997883308557 429.09364684674676 1150.3997883308557 424.7208371297112L1150.3997883308557 424.7208371297112Q1150.3997883308557 421.98783105656395 1149.3486321488763 420.24291179447766Q1148.2764528432567 418.4979925323913 1145.7116317592263 417.4468363504117Q1143.1257875515564 416.3956801684319 1138.2904691144497 415.9331714483609L1138.2904691144497 415.9331714483609L1119.222495973338 413.51551222980754Q1113.3149982306118 412.75867977878215 1110.4348302919875 409.7313499746806Q1107.5546623533633 406.70402017057904 1107.5546623533633 403.0670197809293L1107.5546623533633 403.0670197809293Q1107.5546623533633 397.62203075827443 1110.666084652023 393.8378685031475Q1113.777506950683 390.0537062480206 1119.0753341078607 385.3655496763911L1119.0753341078607 385.3655496763911L1124.5203231305154 389.5911975279495Q1123.616328814013 390.810538699046 1122.2498257774396 392.9969435575637Q1120.8833227408659 395.20437153972114 1120.8833227408659 397.30668390368055L1120.8833227408659 397.30668390368055Q1120.8833227408659 398.9885337948481 1122.628242002952 400.03968997682773Q1124.3731612650383 401.09084615880744 1128.1573235201654 401.4061930134014L1128.1573235201654 401.4061930134014L1142.831463820602 402.77269604997497Q1153.132794404003 403.67669036647754 1158.115274706587 408.9745175236552Q1163.1187781328103 414.27234468083293 1163.1187781328103 424.111166544163L1163.1187781328103 424.111166544163Q1163.1187781328103 431.36414419982293 1159.713032103196 436.3676476260463Q1156.3072860735817 441.3711510522697 1149.4957940143531 443.8518796417418Q1142.6843019551247 446.35363135485346 1132.0886476407695 446.35363135485346ZM1132.6983182263175 392.00885674650283L1132.6983182263175 392.00885674650283Q1123.7634906794901 392.00885674650283 1118.1503166677185 388.0775326258987Q1112.5581657795865 384.1462085052946 1109.9092522009978 377.187554580589Q1107.2603386224089 370.22890065588336 1107.2603386224089 361.2940731090559L1107.2603386224089 361.2940731090559Q1107.2603386224089 351.13990439113195 1110.1405065610334 344.2653429609847Q1113.0206744996576 337.3697584071979 1118.6969178823479 333.81685051210644Q1124.3731612650383 330.26394261701506 1132.6983182263175 330.26394261701506L1132.6983182263175 330.26394261701506Q1141.3177989185513 330.26394261701506 1146.7627879412062 334.57368296313183Q1152.2077769638609 338.8834233092486 1154.793621171531 346.010262223071Q1157.3584422555614 353.1160780132538 1157.3584422555614 361.7355587054874L1157.3584422555614 361.7355587054874Q1157.3584422555614 370.67038625231487 1155.0248755315665 377.5659708061017Q1152.670285683932 384.44053223624894 1147.2883660321959 388.2246944913759Q1141.9274695040995 392.00885674650283 1132.6983182263175 392.00885674650283ZM1132.6983182263175 380.36204625016774L1132.6983182263175 380.36204625016774Q1136.0199717613737 380.36204625016774 1137.9961453834953 379.07963570815247Q1139.9512958819778 377.79722516613725 1140.9393826930386 375.35854282394433Q1141.9274695040995 372.94088360539104 1142.3058857296123 369.3879757102996Q1142.6843019551247 365.8350678152082 1142.6843019551247 361.2940731090559L1142.6843019551247 361.2940731090559Q1142.6843019551247 356.75307840290355 1142.368955100531 353.1160780132538Q1142.0746313695768 349.47907762360404 1141.023475187597 346.9773259104923Q1139.9512958819778 344.4965973210202 1137.9961453834953 343.1300942844466Q1136.0199717613737 341.763591247873 1132.8454800917948 341.763591247873L1132.8454800917948 341.763591247873Q1129.5028034330994 341.763591247873 1127.4635604400587 343.04600178988824Q1125.424317447018 344.3284123319035 1124.2890687704798 346.8301640450152Q1123.153820093942 349.3319157581269 1122.7754038684293 352.96891614777667Q1122.3969876429164 356.6059165374264 1122.3969876429164 361.2940731090559L1122.3969876429164 361.2940731090559Q1122.3969876429164 365.37255909513715 1122.7754038684293 368.8623976193098Q1123.153820093942 372.3312130198428 1124.2049762759216 374.9170572275128Q1125.2771555815411 377.4818783115433 1127.3163985745814 378.93247384267534Q1129.3556415676221 380.36204625016774 1132.6983182263175 380.36204625016774ZM1154.3311124514598 346.15742408854817L1154.3311124514598 346.15742408854817L1150.546950196333 340.10276448034506Q1151.7662913674294 337.9794289927461 1155.991939218988 334.8049373231674Q1160.2386101941859 331.63044565358865 1165.0739286312923 329.5071101659897L1165.0739286312923 329.5071101659897L1169.3205996064903 340.10276448034506Q1167.1972641188916 340.54425007677656 1163.6443562238 341.763591247873Q1160.0914483287088 342.9829324189695 1157.2112803900843 344.2653429609847Q1154.3311124514598 345.54775350299997 1154.3311124514598 346.15742408854817ZM1199.131388927435 420.17984242355885L1199.131388927435 420.17984242355885Q1188.8510814676733 420.17984242355885 1183.2379074559017 416.1644258083964Q1177.6457565677697 412.14900919323395 1175.4593517092521 404.34943032294456Q1173.2519237270947 396.54985145265516 1173.2519237270947 385.19736468727433L1173.2519237270947 385.19736468727433L1173.2519237270947 365.22539722965996Q1173.2519237270947 353.57858673332487 1175.5224210801707 345.8420772339542Q1177.792918433247 338.1265908582232 1183.4691618159372 334.19526673761914Q1189.1454051986277 330.26394261701506 1199.131388927435 330.26394261701506L1199.131388927435 330.26394261701506Q1210.1895519618615 330.26394261701506 1215.4032866244806 334.8049373231674Q1220.6380444107397 339.34593202931967 1222.2988711782675 347.9023433506345Q1223.9596979457956 356.43773154830967 1223.9596979457956 368.3998888992387L1223.9596979457956 368.3998888992387L1223.9596979457956 375.5267278130611L1189.4607520532215 375.5267278130611L1189.4607520532215 393.0810360521221Q1189.4607520532215 398.3788632092998 1190.427815740643 401.7005167443557Q1191.4159025517038 405.04319340305113 1193.6233305338612 406.61992767602067Q1195.809735392379 408.2176850726298 1199.2995739165517 408.2176850726298L1199.2995739165517 408.2176850726298Q1202.915551182562 408.2176850726298 1204.8076323101254 406.47276581054354Q1206.6997134376888 404.72784654845725 1207.3934765177953 401.46926238432013Q1208.0662164742623 398.2317013438227 1208.0662164742623 393.8378685031475L1208.0662164742623 393.8378685031475L1208.0662164742623 388.5400413459698L1223.8125360803183 388.5400413459698L1223.8125360803183 391.86169488102564Q1223.8125360803183 405.04319340305113 1218.2203851921863 412.611517913305Q1212.6072111804147 420.17984242355885 1199.131388927435 420.17984242355885ZM1189.4607520532215 362.0509055600813L1189.4607520532215 366.73906213171074L1208.0662164742623 366.73906213171074L1208.0662164742623 358.8764138905026Q1208.0662164742623 353.4104017442081 1207.4565458887141 349.71033198363955Q1206.8678984268056 346.010262223071 1204.9758172992422 344.11818109550757Q1203.0837361716785 342.2260999679441 1198.9842270619579 342.2260999679441L1198.9842270619579 342.2260999679441Q1195.0529029413538 342.2260999679441 1193.013659948313 344.0340886009492Q1190.9744169552723 345.8420772339542 1190.217584504247 350.1728407037106Q1189.4607520532215 354.48258104982744 1189.4607520532215 362.0509055600813L1189.4607520532215 362.0509055600813ZM1255.3051752924302 418.9605012524624L1239.0963469663031 418.9605012524624L1239.0963469663031 331.46226066447196L1255.3051752924302 331.46226066447196L1255.3051752924302 343.886926735472Q1260.140493729537 335.8560935051471 1264.9758121666434 333.14411055563943Q1269.8321537273896 330.41110448249225 1274.6674721644963 330.41110448249225L1274.6674721644963 330.41110448249225Q1275.2771427500447 330.41110448249225 1275.8027208410344 330.41110448249225Q1276.3282989320244 330.41110448249225 1277.2533163721664 330.5582663479694L1277.2533163721664 330.5582663479694L1277.2533163721664 348.42792144162433Q1275.4243046155218 347.67108899059895 1273.0907378915267 347.1455108996091Q1270.7361480438922 346.5989096849796 1268.318488825339 346.5989096849796L1268.318488825339 346.5989096849796Q1264.534326570212 346.5989096849796 1261.422904271552 348.34382894706596Q1258.3325050965318 350.08874820915224 1255.3051752924302 355.09225163537565L1255.3051752924302 355.09225163537565L1255.3051752924302 418.9605012524624Z " fill="#006838" transform="matrix(0.6850637391414518,0,0,0.6850637391414517,0,45.599075960262994)"/></g></svg>